<svg viewBox="0 0 382 382" xmlns="http://www.w3.org/2000/svg" xml:space="preserve" style="fill-rule:evenodd;clip-rule:evenodd;stroke-linejoin:round;stroke-miterlimit:2"><circle cx="191" cy="191" r="180" fill="#fff"/><path d="M190.69 0c105.245 0 190.691 85.445 190.691 190.69S295.935 381.381 190.69 381.381 0 295.935 0 190.69 85.445 0 190.69 0Zm142.675 193.159c5.215-6.07 4.52-15.232-1.55-20.447-6.07-5.215-15.232-4.521-20.447 1.55l-95.067 110.66c-5.215 6.07-4.521 15.233 1.549 20.447 6.071 5.215 15.233 4.521 20.448-1.549l95.067-110.661ZM64.471 215.651c-8.859-3.849-19.176.218-23.025 9.076s.217 19.175 9.076 23.024l115.793 50.318c8.858 3.849 19.175-.217 23.024-9.075 3.85-8.859-.217-19.176-9.075-23.025L64.471 215.651Zm92.211-137.122c-.671-8.806-8.363-15.41-17.169-14.74-8.805.67-15.409 8.363-14.739 17.168l10.148 133.317c.67 8.805 8.363 15.41 17.168 14.74 8.805-.67 15.41-8.363 14.74-17.168L156.682 78.529Zm146.841 41.72c3.918-7.914.673-17.52-7.241-21.438-7.914-3.917-17.52-.673-21.437 7.241l-34.8 70.299c-3.917 7.914-.673 17.52 7.241 21.438 7.914 3.917 17.52.673 21.438-7.241l34.799-70.299Zm-70.112-50.627c1.157-8.754-5.012-16.801-13.767-17.957-8.754-1.156-16.801 5.012-17.957 13.767l-13.574 102.763c-1.157 8.755 5.012 16.801 13.766 17.958 8.755 1.156 16.801-5.012 17.958-13.767l13.574-102.764Z" style="fill:#080"/></svg>
