<svg version="1" xmlns="http://www.w3.org/2000/svg" width="426.667" height="426.667" viewBox="0 0 320.000000 320.000000"><path d="M143.4 1C87.3 6.9 38.2 42.3 14.8 93.6-4.6 136-4.6 184 14.8 226.4c20.9 45.9 62.8 79.5 112.2 90 26.1 5.5 55.5 4.1 81.5-4.1 42.2-13.3 78.1-45.2 96.7-85.9 19.4-42.4 19.4-90.4 0-132.8C276.8 31.3 211.3-6.1 143.4 1zM190 45.8c1.4 1 3.4 3.4 4.4 5.4l1.9 3.5-5.7 43.9c-3.2 24.1-6.3 45.6-6.9 47.7-1.6 5.6-6.7 9.7-12 9.7-2.3 0-5.3-.6-6.7-1.3-3.6-1.8-7-7.4-7-11.5 0-5.2 10.9-87.1 12.1-90.8 2.6-8.3 13-11.7 19.9-6.6zm-63 12c2.9 2.9 4 4.8 4.4 8.2.3 2.5 2.4 29.2 4.7 59.4 4 53.9 4.1 54.9 2.3 58.9-5.3 11.8-22.8 9.5-24.8-3.3-.9-5.3-8.6-107.5-8.6-113.6 0-4.8.4-5.7 3.8-9.4 3.6-3.7 4.3-4 9.2-4 4.7 0 5.6.4 9 3.8zm123.5 26.4c3 2.3 5.5 7.4 5.5 11.1 0 2.6-27.5 60-31.6 65.8-2.9 4.2-6.1 5.9-11.2 5.9-7 0-13.2-6.2-13.2-13.3 0-2.6 28.7-62.2 32-66.5 3.1-3.8 5.8-5.1 11.1-5.2 3.3 0 5.4.6 7.4 2.2zm25.4 59.2c6.4 3.3 8.3 12.1 4 18-3.3 4.5-79.3 92.8-81.7 94.9-1.1 1-3.8 2.1-6 2.4-7.6 1-13.2-4.3-13.2-12.7 0-3.9 1.6-5.9 42-52.9 27.2-31.7 43-49.3 44.8-49.9 3.9-1.5 6.9-1.4 10.1.2zm-173.2 58.7c27.9 12.1 51.6 22.8 52.7 23.7 2.5 2.3 4.6 7.4 4.6 11.4 0 7-7.1 13.8-14.4 13.8-5.4 0-102.6-42.1-107.5-46.6-2.9-2.6-3.5-3.9-3.9-8.7-.5-6.7 1.9-11.5 7.1-14.1 6.6-3.2 8.1-2.7 61.4 20.5z"/></svg>