<svg xmlns="http://www.w3.org/2000/svg" style="display: none;">
  <symbol id="logomark" viewBox="0 0 382 382">
    <path d="M190.69 0c105.245 0 190.691 85.445 190.691 190.69S295.935 381.381 190.69 381.381 0 295.935 0 190.69 85.445 0 190.69 0zm142.242 192.128c5.035-5.861 4.365-14.707-1.496-19.742-5.861-5.035-14.707-4.365-19.742 1.496l-95.719 111.419c-5.035 5.861-4.365 14.708 1.496 19.743 5.861 5.035 14.707 4.364 19.743-1.497l95.718-111.419zM67.048 215.993c-10.124-4.399-21.915.248-26.314 10.372-4.399 10.124.248 21.915 10.372 26.314l111.208 48.325c10.123 4.399 21.914-.248 26.314-10.372 4.399-10.124-.249-21.915-10.373-26.314L67.048 215.993zm89.634-137.464c-.671-8.806-8.363-15.41-17.169-14.74-8.805.67-15.409 8.363-14.739 17.168l10.148 133.317c.67 8.805 8.363 15.41 17.168 14.74 8.805-.67 15.41-8.363 14.74-17.168L156.682 78.529zm146.841 41.72c3.918-7.914.673-17.52-7.241-21.438-7.914-3.917-17.52-.673-21.437 7.241l-34.8 70.299c-3.917 7.914-.673 17.52 7.241 21.438 7.914 3.917 17.52.673 21.438-7.241l34.799-70.299zm-70.112-50.627c1.157-8.754-5.012-16.801-13.767-17.957-8.754-1.156-16.801 5.012-17.957 13.767l-13.574 102.763c-1.157 8.755 5.012 16.801 13.766 17.958 8.755 1.156 16.801-5.012 17.958-13.767l13.574-102.764z" fill="currentColor"/>
  </symbol>
  <symbol id="logotype" viewBox="0 0 839 70">
    <g>
      <path d="M43.2 40.704c0 .768 0 1.824-.096 3.072 0 1.248-.096 2.4-.192 3.456H11.616c0 2.112.288 3.936.96 5.568.672 1.536 1.536 2.88 2.688 4.032 1.152 1.056 2.592 1.824 4.224 2.4 1.632.576 3.456.864 5.472.864 2.304 0 4.8-.192 7.392-.576a43.673 43.673 0 008.256-1.728v9.12c-1.248.288-2.496.672-3.936.96-1.44.288-2.976.48-4.416.672-1.536.288-3.072.384-4.608.576-1.536.096-2.976.096-4.416.096-3.648 0-6.912-.48-9.792-1.536s-5.28-2.496-7.296-4.512c-2.016-2.016-3.552-4.512-4.608-7.488C.48 52.704 0 49.248 0 45.312c0-3.84.48-7.392 1.536-10.56s2.592-5.856 4.512-8.16a20.548 20.548 0 017.104-5.28 23.905 23.905 0 019.216-1.824c3.36 0 6.336.576 8.928 1.632 2.592.96 4.8 2.496 6.528 4.32 1.824 1.92 3.072 4.128 4.032 6.72.864 2.592 1.344 5.472 1.344 8.544zm-11.616-1.632c0-1.92-.192-3.552-.672-4.896-.576-1.44-1.248-2.592-2.112-3.456-.864-.96-1.824-1.632-2.976-2.016-1.152-.48-2.4-.672-3.648-.672-2.88 0-5.28.96-7.104 2.88-1.824 1.92-2.976 4.608-3.264 8.16h19.776zM85.134 39.072c.096-1.824 0-3.36-.192-4.608-.288-1.248-.672-2.208-1.152-3.072-.576-.768-1.152-1.344-1.92-1.728-.768-.384-1.632-.576-2.592-.576-1.632 0-3.456.672-5.184 2.112-1.824 1.344-3.84 3.648-5.952 6.816V68.16H56.43V20.544h10.368l.384 6.912c.768-1.248 1.728-2.304 2.688-3.264.96-.96 2.016-1.824 3.264-2.496a15.393 15.393 0 014.032-1.632c1.44-.384 3.072-.576 4.8-.576 2.4 0 4.512.384 6.432 1.248 1.824.864 3.36 2.112 4.608 3.648 1.344 1.632 2.208 3.744 2.88 6.144.576 2.496.864 5.28.768 8.544h-11.52zM135.323 7.488c0 1.056-.192 2.016-.576 2.88-.384.96-.864 1.728-1.536 2.4a8.177 8.177 0 01-2.4 1.632c-.864.384-1.92.576-2.976.576a7.823 7.823 0 01-2.976-.576 8.177 8.177 0 01-2.4-1.632c-.672-.672-1.152-1.44-1.536-2.4-.384-.864-.576-1.824-.576-2.88 0-1.056.192-2.016.576-2.88.384-.96.864-1.728 1.536-2.4a8.177 8.177 0 012.4-1.632A7.823 7.823 0 01127.835 0c1.056 0 2.112.192 2.976.576.864.384 1.728.96 2.4 1.632.672.672 1.152 1.44 1.536 2.4.384.864.576 1.824.576 2.88zm-12.672 21.984h-13.44v-8.928h25.152v38.688h13.728v8.928h-40.512v-8.928h15.072v-29.76zM198.568 66.336a39.58 39.58 0 01-7.008 2.016c-2.4.48-4.896.672-7.488.672-3.84 0-7.2-.576-10.176-1.536-2.976-1.056-5.568-2.592-7.68-4.608-2.016-2.016-3.648-4.608-4.8-7.584-1.056-2.976-1.632-6.432-1.632-10.368 0-3.84.576-7.296 1.824-10.368 1.152-3.072 2.88-5.76 5.088-7.968 2.208-2.112 4.8-3.84 7.872-4.992 3.072-1.248 6.528-1.824 10.272-1.824 3.072 0 5.664.192 7.776.48 2.112.384 4.032.768 5.76 1.248V32.64c-1.92-.96-4.032-1.728-6.336-2.304-2.208-.48-4.416-.768-6.432-.768-2.112 0-4.032.384-5.76 1.056-1.632.768-3.072 1.728-4.224 3.072-1.152 1.248-2.016 2.784-2.688 4.608-.576 1.824-.864 3.84-.864 6.048 0 2.304.288 4.32.96 6.144.672 1.824 1.632 3.36 2.784 4.608a13.11 13.11 0 004.32 2.88 15.258 15.258 0 005.664 1.056c.96 0 2.016-.096 3.168-.192 1.056-.192 2.208-.384 3.36-.672 1.056-.288 2.208-.576 3.264-.864 1.056-.384 2.016-.768 2.976-1.152v10.176z"/>
      <path d="M232.437 50.88c1.344 0 2.496.192 3.648.672 1.152.48 2.112 1.152 2.976 2.016.768.864 1.44 1.824 1.92 2.88.48 1.152.672 2.4.672 3.648 0 1.248-.192 2.4-.672 3.552-.48 1.056-1.152 2.112-1.92 2.88-.864.864-1.824 1.536-2.976 2.016s-2.304.672-3.648.672c-1.248 0-2.4-.192-3.552-.672-1.056-.48-2.016-1.152-2.784-2.016-.864-.768-1.536-1.824-1.92-2.88-.48-1.152-.768-2.304-.768-3.552 0-1.248.288-2.496.768-3.648.384-1.056 1.056-2.016 1.92-2.88.768-.864 1.728-1.536 2.784-2.016 1.152-.48 2.304-.672 3.552-.672z" fill="currentColor"/>
      <path d="M308.451 43.488c0 4.416-.576 8.16-1.824 11.328-1.248 3.264-2.976 5.856-5.184 7.968s-4.8 3.648-7.776 4.704a31.722 31.722 0 01-9.792 1.536c-3.456 0-6.72-.288-9.696-.768-2.976-.576-5.856-1.248-8.544-2.112V1.92h11.424v15.552l-.48 9.408c1.728-2.208 3.744-4.032 6.048-5.376 2.304-1.344 5.088-2.016 8.256-2.016 2.784 0 5.28.576 7.488 1.728 2.208 1.056 4.032 2.688 5.568 4.8 1.44 2.016 2.592 4.608 3.36 7.488.768 2.976 1.152 6.336 1.152 9.984zm-12 .48c0-2.592-.192-4.896-.576-6.72-.384-1.824-.864-3.36-1.632-4.512-.672-1.248-1.536-2.112-2.496-2.592-1.056-.576-2.208-.864-3.552-.864-1.92 0-3.744.768-5.568 2.4-1.728 1.536-3.552 3.648-5.568 6.336v20.832c.864.288 2.016.576 3.36.864 1.344.192 2.688.288 4.032.288 1.824 0 3.456-.384 4.992-1.152 1.44-.672 2.688-1.824 3.744-3.168s1.92-3.072 2.4-4.992c.576-2.016.864-4.224.864-6.72zM359.888 40.704c0 .768 0 1.824-.096 3.072 0 1.248-.096 2.4-.192 3.456h-31.296c0 2.112.288 3.936.96 5.568.672 1.536 1.536 2.88 2.688 4.032 1.152 1.056 2.592 1.824 4.224 2.4 1.632.576 3.456.864 5.472.864 2.304 0 4.8-.192 7.392-.576a43.673 43.673 0 008.256-1.728v9.12c-1.248.288-2.496.672-3.936.96-1.44.288-2.976.48-4.416.672-1.536.288-3.072.384-4.608.576-1.536.096-2.976.096-4.416.096-3.648 0-6.912-.48-9.792-1.536s-5.28-2.496-7.296-4.512c-2.016-2.016-3.552-4.512-4.608-7.488-1.056-2.976-1.536-6.432-1.536-10.368 0-3.84.48-7.392 1.536-10.56s2.592-5.856 4.512-8.16a20.548 20.548 0 017.104-5.28 23.905 23.905 0 019.216-1.824c3.36 0 6.336.576 8.928 1.632 2.592.96 4.8 2.496 6.528 4.32 1.824 1.92 3.072 4.128 4.032 6.72.864 2.592 1.344 5.472 1.344 8.544zm-11.616-1.632c0-1.92-.192-3.552-.672-4.896-.576-1.44-1.248-2.592-2.112-3.456-.864-.96-1.824-1.632-2.976-2.016-1.152-.48-2.4-.672-3.648-.672-2.88 0-5.28.96-7.104 2.88-1.824 1.92-2.976 4.608-3.264 8.16h19.776zM401.149 68.16l-.288-7.008c-.96 1.152-2.016 2.304-3.072 3.264a14.804 14.804 0 01-3.456 2.592c-1.248.672-2.496 1.248-3.936 1.632-1.344.384-2.88.576-4.608.576-2.784 0-5.28-.576-7.488-1.632-2.208-1.152-4.032-2.784-5.472-4.8-1.536-2.112-2.688-4.608-3.456-7.584-.768-2.976-1.152-6.336-1.152-9.984 0-4.32.672-8.16 1.824-11.328 1.248-3.264 2.976-5.856 5.184-7.968s4.8-3.648 7.776-4.704c2.976-1.056 6.24-1.536 9.792-1.536 1.152 0 2.4.096 3.552.288 1.248.096 2.304.288 3.264.576V1.92h11.424v66.24h-9.888zm-20.928-23.424c0 2.592.192 4.896.576 6.72.288 1.824.864 3.36 1.536 4.608.768 1.152 1.632 2.016 2.592 2.592a8.394 8.394 0 003.552.768c1.92 0 3.744-.768 5.568-2.304 1.728-1.632 3.552-3.744 5.568-6.432V29.856c-.96-.384-2.016-.576-3.36-.864a28.476 28.476 0 00-4.032-.288c-1.824 0-3.456.384-4.992 1.152-1.44.672-2.688 1.728-3.744 3.168-1.056 1.344-1.824 3.072-2.4 4.992-.576 2.016-.864 4.224-.864 6.72zM452.394 68.16V37.152c0-5.28-1.92-7.872-5.856-7.872-1.92 0-3.744.768-5.568 2.4-1.728 1.536-3.552 3.648-5.568 6.336V68.16h-11.424V20.544h9.888l.288 7.008a33.749 33.749 0 012.976-3.36c1.056-.96 2.208-1.824 3.456-2.496a16.14 16.14 0 013.936-1.632c1.344-.384 2.976-.576 4.704-.576 2.4 0 4.608.384 6.336 1.248 1.824.768 3.36 1.92 4.608 3.36 1.248 1.44 2.112 3.168 2.688 5.184.672 2.112.96 4.416.96 6.912V68.16h-11.424zM506.616 68.16l-.288-6.24c-.96 1.056-2.016 2.016-3.168 2.976-1.056.864-2.304 1.632-3.552 2.304-1.344.672-2.784 1.152-4.32 1.536-1.536.288-3.264.48-5.088.48-2.4 0-4.608-.384-6.432-1.056a12.738 12.738 0 01-4.608-2.976 13.805 13.805 0 01-2.88-4.704 18.861 18.861 0 01-.96-5.952c0-2.304.48-4.32 1.44-6.24s2.4-3.552 4.416-4.896c1.92-1.44 4.32-2.496 7.296-3.264 2.88-.768 6.336-1.152 10.272-1.152h6.24v-2.88c0-1.248-.192-2.304-.576-3.264-.288-1.056-.864-1.824-1.632-2.592-.768-.672-1.728-1.152-2.976-1.536-1.248-.384-2.688-.576-4.512-.576-2.784 0-5.568.288-8.256.96-2.784.672-5.472 1.536-7.968 2.688v-9.12c2.304-.96 4.896-1.632 7.872-2.304 2.976-.576 6.048-.864 9.312-.864 3.552 0 6.528.384 9.12 1.056 2.496.672 4.608 1.632 6.24 2.976a12.15 12.15 0 013.648 5.088c.768 2.016 1.152 4.32 1.152 7.008V68.16h-9.792zm-1.632-21.024h-7.008c-1.92 0-3.552.192-4.896.576-1.344.384-2.496.864-3.264 1.536-.864.672-1.536 1.344-1.92 2.208a6.886 6.886 0 00-.576 2.784c0 1.92.672 3.456 1.92 4.416 1.248 1.056 2.976 1.536 5.088 1.536 1.632 0 3.264-.576 4.992-1.728 1.728-1.152 3.552-2.784 5.664-4.992v-6.336zM560.165 39.072c.096-1.824 0-3.36-.192-4.608-.288-1.248-.672-2.208-1.152-3.072-.576-.768-1.152-1.344-1.92-1.728-.768-.384-1.632-.576-2.592-.576-1.632 0-3.456.672-5.184 2.112-1.824 1.344-3.84 3.648-5.952 6.816V68.16h-11.712V20.544h10.368l.384 6.912c.768-1.248 1.728-2.304 2.688-3.264.96-.96 2.016-1.824 3.264-2.496a15.393 15.393 0 014.032-1.632c1.44-.384 3.072-.576 4.8-.576 2.4 0 4.512.384 6.432 1.248 1.824.864 3.36 2.112 4.608 3.648 1.344 1.632 2.208 3.744 2.88 6.144.576 2.496.864 5.28.768 8.544h-11.52zM582.801 68.16v-7.968l23.328-29.856h-22.752v-9.792h37.824v8.064L598.449 58.08h23.136v10.08h-38.784z"/>
      <path d="M654.685 50.88c1.344 0 2.496.192 3.648.672 1.152.48 2.112 1.152 2.976 2.016.768.864 1.44 1.824 1.92 2.88.48 1.152.672 2.4.672 3.648 0 1.248-.192 2.4-.672 3.552-.48 1.056-1.152 2.112-1.92 2.88-.864.864-1.824 1.536-2.976 2.016s-2.304.672-3.648.672c-1.248 0-2.4-.192-3.552-.672-1.056-.48-2.016-1.152-2.784-2.016-.864-.768-1.536-1.824-1.92-2.88-.48-1.152-.768-2.304-.768-3.552 0-1.248.288-2.496.768-3.648.384-1.056 1.056-2.016 1.92-2.88.768-.864 1.728-1.536 2.784-2.016 1.152-.48 2.304-.672 3.552-.672zM717.833 68.16l-.288-7.008c-.96 1.152-2.016 2.304-3.072 3.264a14.804 14.804 0 01-3.456 2.592c-1.248.672-2.496 1.248-3.936 1.632-1.344.384-2.88.576-4.608.576-2.784 0-5.28-.576-7.488-1.632-2.208-1.152-4.032-2.784-5.472-4.8-1.536-2.112-2.688-4.608-3.456-7.584-.768-2.976-1.152-6.336-1.152-9.984 0-4.32.672-8.16 1.824-11.328 1.248-3.264 2.976-5.856 5.184-7.968s4.8-3.648 7.776-4.704c2.976-1.056 6.24-1.536 9.792-1.536 1.152 0 2.4.096 3.552.288 1.248.096 2.304.288 3.264.576V1.92h11.424v66.24h-9.888zm-20.928-23.424c0 2.592.192 4.896.576 6.72.288 1.824.864 3.36 1.536 4.608.768 1.152 1.632 2.016 2.592 2.592a8.394 8.394 0 003.552.768c1.92 0 3.744-.768 5.568-2.304 1.728-1.632 3.552-3.744 5.568-6.432V29.856c-.96-.384-2.016-.576-3.36-.864a28.476 28.476 0 00-4.032-.288c-1.824 0-3.456.384-4.992 1.152-1.44.672-2.688 1.728-3.744 3.168-1.056 1.344-1.824 3.072-2.4 4.992-.576 2.016-.864 4.224-.864 6.72zM782.133 40.704c0 .768 0 1.824-.096 3.072 0 1.248-.096 2.4-.192 3.456h-31.296c0 2.112.288 3.936.96 5.568.672 1.536 1.536 2.88 2.688 4.032 1.152 1.056 2.592 1.824 4.224 2.4 1.632.576 3.456.864 5.472.864 2.304 0 4.8-.192 7.392-.576a43.673 43.673 0 008.256-1.728v9.12c-1.248.288-2.496.672-3.936.96-1.44.288-2.976.48-4.416.672-1.536.288-3.072.384-4.608.576-1.536.096-2.976.096-4.416.096-3.648 0-6.912-.48-9.792-1.536s-5.28-2.496-7.296-4.512c-2.016-2.016-3.552-4.512-4.608-7.488-1.056-2.976-1.536-6.432-1.536-10.368 0-3.84.48-7.392 1.536-10.56s2.592-5.856 4.512-8.16a20.548 20.548 0 017.104-5.28 23.905 23.905 0 019.216-1.824c3.36 0 6.336.576 8.928 1.632 2.592.96 4.8 2.496 6.528 4.32 1.824 1.92 3.072 4.128 4.032 6.72.864 2.592 1.344 5.472 1.344 8.544zm-11.616-1.632c0-1.92-.192-3.552-.672-4.896-.576-1.44-1.248-2.592-2.112-3.456-.864-.96-1.824-1.632-2.976-2.016-1.152-.48-2.4-.672-3.648-.672-2.88 0-5.28.96-7.104 2.88-1.824 1.92-2.976 4.608-3.264 8.16h19.776zM820.043 68.16h-13.152l-18.912-47.616h12.768l9.888 26.976 2.976 8.736 2.88-8.352 9.984-27.36h12.288l-18.72 47.616z" fill="currentColor"/>
    </g>
  </symbol>
</svg>
